<svg id="Capa_2" data-name="Capa 2" xmlns="http://www.w3.org/2000/svg" viewBox="0 0 800 800"><defs><style>.cls-1{fill:#fff;}</style></defs><title>ut</title><polygon class="cls-1" points="347.64 378.94 465.13 378.94 463.86 122.61 600.51 122.61 600.51 15 203.32 15 203.32 125.03 347.64 125.03 347.64 378.94"/><path class="cls-1" d="M249.3,476.88c36.14,34.38,78.34,41.7,91.95,43.52H469c13.54-2.4,62.58-12.7,98.34-55.62a148.71,148.71,0,0,0,33.2-76.17V148H485.57V405.54H325.93V148H203.32V386.19A151.17,151.17,0,0,0,249.3,476.88Z"/><path class="cls-1" d="M119,626.8q.63-32.64,1.27-65.29H102.42v61.67A11.82,11.82,0,0,1,98.59,628a13.41,13.41,0,0,1-8.94,2.42A12,12,0,0,1,80.71,628a10.54,10.54,0,0,1-3.83-7.25V561.51H59V626.8a24.39,24.39,0,0,0,8.94,13.3,26.29,26.29,0,0,0,11.49,4.84H98.59a19.47,19.47,0,0,0,11.5-3.63C116.81,636.88,118.54,629.49,119,626.8Z"/><path class="cls-1" d="M195.66,642.52V605c.05-1.62.19-11.61-7.67-18.14a24.89,24.89,0,0,0-10.21-4.83,24,24,0,0,0-11.5,0,23.18,23.18,0,0,0-12.77,8.46v-6h-16.6v58h17.88V606.25a12.5,12.5,0,0,1,5.11-8.47,13.82,13.82,0,0,1,8.94-2.41,9.2,9.2,0,0,1,6.38,2.41,8.32,8.32,0,0,1,2.56,6.05v38.69Z"/><rect class="cls-1" x="209.7" y="584.48" width="15.33" height="58.04"/><path class="cls-1" d="M226.31,574.81a9.89,9.89,0,0,0,0-13.3,11.7,11.7,0,0,0-7.67-3.63c-.68,0-5.6-.07-8.94,3.63a10.17,10.17,0,0,0-2.55,6,12.87,12.87,0,0,0,5.11,8.46,13.56,13.56,0,0,0,6.38,2.42A11.45,11.45,0,0,0,226.31,574.81Z"/><rect class="cls-1" x="483.01" y="584.48" width="15.33" height="58.04"/><path class="cls-1" d="M485.57,576a13.58,13.58,0,0,0,6.39,2.42,11.45,11.45,0,0,0,7.66-3.63,9.89,9.89,0,0,0,0-13.3,11.68,11.68,0,0,0-7.66-3.63c-.69,0-5.61-.07-8.95,3.63a10.17,10.17,0,0,0-2.55,6A12.91,12.91,0,0,0,485.57,576Z"/><rect class="cls-1" x="485.57" y="722.32" width="15.33" height="58.04"/><path class="cls-1" d="M502.17,699.35a11.58,11.58,0,0,0-7.66-3.63,12,12,0,0,0-8.94,3.63,10.19,10.19,0,0,0-2.56,6,12.9,12.9,0,0,0,5.11,8.47,13.73,13.73,0,0,0,6.39,2.42,11.53,11.53,0,0,0,7.66-3.63,9.86,9.86,0,0,0,0-13.3Z"/><polygon class="cls-1" points="268.45 619.55 250.57 584.49 236.52 584.49 262.07 642.52 274.84 642.52 300.38 584.49 283.78 584.49 268.45 619.55"/><path class="cls-1" d="M352.75,631.64a16,16,0,0,1-10.22,1.21,20.9,20.9,0,0,1-8.94-2.42c-8.22-4.44-10-13.08-10.22-14.51h52.36a30.28,30.28,0,0,0-6.38-21.76c-10.1-12.56-26.52-12.16-28.1-12.09-1.44-.1-17-.85-26.82,10.88A28.57,28.57,0,0,0,308,613.5c0,1.38.06,17.7,14,26.6a33.69,33.69,0,0,0,20.44,4.84,29.27,29.27,0,0,0,14.05-1.21,27.87,27.87,0,0,0,14.05-10.88l-11.5-7.26A14.6,14.6,0,0,1,352.75,631.64ZM331,596.58a18.85,18.85,0,0,1,11.5-3.63,23.23,23.23,0,0,1,12.77,4.83,21.12,21.12,0,0,1,6.39,8.47h-37A16.94,16.94,0,0,1,331,596.58Z"/><path class="cls-1" d="M212.87,719.9c-1.43-.09-17-.84-26.82,10.89a28.55,28.55,0,0,0-6.38,20.55c0,1.37.06,17.7,14.05,26.6a33.67,33.67,0,0,0,20.43,4.84,29.27,29.27,0,0,0,14-1.21,27.87,27.87,0,0,0,14.05-10.88l-11.5-7.26a14.65,14.65,0,0,1-6.38,6.05,16,16,0,0,1-10.22,1.21,20.93,20.93,0,0,1-8.94-2.42c-8.21-4.44-10-13.09-10.22-14.51h52.37A30.37,30.37,0,0,0,241,732C230.87,719.43,214.45,719.84,212.87,719.9Zm-16.32,24.19a16.9,16.9,0,0,1,6.38-9.68,18.75,18.75,0,0,1,11.5-3.62,23.23,23.23,0,0,1,12.77,4.83,20.9,20.9,0,0,1,6.38,8.47Z"/><path class="cls-1" d="M387.23,584.48v58h15.32V601.41a17.68,17.68,0,0,1,3.84-4.83,20.67,20.67,0,0,1,12.77-4.84l1.27-7.26c-.77-1.52-1.16-2.28-1.27-2.41-1.52-1.84-6.68-.3-7.67,0A26.21,26.21,0,0,0,400,589.32v-4.84Z"/><path class="cls-1" d="M470.24,625.59c-1.19-6.78-4.05-10.21-6.38-12.09-6.15-4.93-14.06-3.37-19.16-9.67a14.21,14.21,0,0,1-2.55-4.84,6.13,6.13,0,0,1,1.27-3.62,7.89,7.89,0,0,1,7.67-2.42,17.54,17.54,0,0,1,5.1,2.42A17.05,17.05,0,0,1,460,599l6.38-7.25a16.35,16.35,0,0,0-6.38-7.26,18.09,18.09,0,0,0-11.5-2.41c-.81-.14-10-1.56-16.6,4.83A17.11,17.11,0,0,0,426.82,599c1.63,7.61,5,11.32,7.66,13.3,5.62,4.13,11.7,3.16,16.61,8.47a16.67,16.67,0,0,1,3.83,7.25,6.56,6.56,0,0,1-2.56,3.63,7.44,7.44,0,0,1-5.11,1.21,17.36,17.36,0,0,1-7.66-2.42,16.38,16.38,0,0,1-5.11-4.84l-8.94,9.68a29.3,29.3,0,0,0,10.22,7.25,30.68,30.68,0,0,0,12.77,2.42c1,.19,8.81,1.51,15.33-3.63C471.41,635.36,470.33,626.2,470.24,625.59Z"/><path class="cls-1" d="M521.33,636.48c8.71,8.21,19.54,8.45,21.71,8.46a24.15,24.15,0,0,0,12.77-2.42,22.16,22.16,0,0,0,6.39-4.84v7.26h16.6V557.88H562.2v30.23a27.62,27.62,0,0,0-10.22-6,28.81,28.81,0,0,0-12.77-1.21c-1.64.15-15.46,1.64-23,13.3a27.26,27.26,0,0,0-3.83,19.34A29.2,29.2,0,0,0,521.33,636.48Zm10.15-36.21a18.89,18.89,0,0,1,14-4.9,20.66,20.66,0,0,1,12.8,4.78,18.6,18.6,0,0,1,6.45,13.27A21.33,21.33,0,0,1,557.16,628a23,23,0,0,1-11.47,4.89,20.72,20.72,0,0,1-14.08-6,18.35,18.35,0,0,1-5.17-13.28A16.62,16.62,0,0,1,531.48,600.27Z"/><path class="cls-1" d="M724.4,557.88v30.23a27.62,27.62,0,0,0-10.22-6,28.81,28.81,0,0,0-12.77-1.21c-1.64.15-15.46,1.64-23,13.3a27.26,27.26,0,0,0-3.83,19.34,29.2,29.2,0,0,0,8.94,23c8.71,8.21,19.54,8.45,21.71,8.46A24.15,24.15,0,0,0,718,642.52a22.16,22.16,0,0,0,6.39-4.84v7.26H741V557.88Zm-5,70.08a23,23,0,0,1-11.47,4.89,20.72,20.72,0,0,1-14.08-6,18.42,18.42,0,0,1-5.18-13.28,16.68,16.68,0,0,1,5-13.32,18.88,18.88,0,0,1,14-4.9,20.66,20.66,0,0,1,12.8,4.78A18.69,18.69,0,0,1,727,613.42,21.33,21.33,0,0,1,719.36,628Z"/><path class="cls-1" d="M149.68,727.16a27.75,27.75,0,0,0-10.22-6,29.12,29.12,0,0,0-12.77-1.21c-1.64.15-15.46,1.65-23,13.3a27.28,27.28,0,0,0-3.83,19.35,29.18,29.18,0,0,0,8.94,23c8.71,8.21,19.54,8.46,21.71,8.47a24.25,24.25,0,0,0,12.77-2.42,22.34,22.34,0,0,0,6.39-4.84V784h16.6V696.93h-16.6Zm-5,39.85a22.89,22.89,0,0,1-11.47,4.88,20.72,20.72,0,0,1-14.08-6,18.4,18.4,0,0,1-5.18-13.27,16.71,16.71,0,0,1,5-13.33,18.94,18.94,0,0,1,14-4.9,20.8,20.8,0,0,1,12.8,4.78,18.63,18.63,0,0,1,6.45,13.27A21.33,21.33,0,0,1,144.64,767Z"/><rect class="cls-1" x="259.51" y="698.14" width="17.88" height="82.22"/><rect class="cls-1" x="454.92" y="698.14" width="17.88" height="82.22"/><path class="cls-1" d="M643.94,637.68v7.26h16.6V582.07h-16.6v7.25a22.78,22.78,0,0,0-6.39-4.84,25,25,0,0,0-14-2.41c-1.66-.11-13.81-.67-23,8.46a27.45,27.45,0,0,0-7.66,23c-.09,1.48-.77,16.25,11.49,25.39a32.1,32.1,0,0,0,19.16,6.05,21,21,0,0,0,12.77-1.21A19.36,19.36,0,0,0,643.94,637.68Zm-17.88-4.83a18.49,18.49,0,0,1-12.78-6.05,16.12,16.12,0,0,1-3.83-10.88c-.15-.86-1.54-9.53,5.11-15.72a19.13,19.13,0,0,1,11.5-4.83,20.71,20.71,0,0,1,12.77,4.83,18.62,18.62,0,0,1,6.38,13.3,17.87,17.87,0,0,1-3.83,12.09C635.87,632.49,627.2,632.82,626.06,632.85Z"/><path class="cls-1" d="M683.53,727.16a22.78,22.78,0,0,0-6.39-4.84,25,25,0,0,0-14-2.42c-1.66-.1-13.81-.67-23,8.47a27.48,27.48,0,0,0-7.66,23c-.09,1.47-.77,16.24,11.5,25.39a32.08,32.08,0,0,0,19.15,6,21.15,21.15,0,0,0,12.78-1.21,19.39,19.39,0,0,0,7.66-6.05v7.26h16.6V719.9h-16.6ZM681,763.43c-5.51,6.9-14.17,7.23-15.32,7.26a18.46,18.46,0,0,1-12.77-6.05A16.09,16.09,0,0,1,649,753.76c-.15-.86-1.54-9.53,5.11-15.72a19.16,19.16,0,0,1,11.5-4.84A20.68,20.68,0,0,1,678.42,738a18.67,18.67,0,0,1,6.39,13.3A17.91,17.91,0,0,1,681,763.43Z"/><polygon class="cls-1" points="319.54 715.07 334.87 715.07 334.87 782.78 352.75 782.78 352.75 715.07 370.63 715.07 370.63 698.14 319.54 698.14 319.54 715.07"/><path class="cls-1" d="M433.21,729.58c-2.09-2-10.2-9.86-23-9.68-2.47,0-14.51.45-24.27,9.68a32.85,32.85,0,0,0-10.22,21.76,33.25,33.25,0,0,0,11.5,23,36.76,36.76,0,0,0,21.71,8.47c3.1.15,15.81.81,25.54-8.47,9.59-9.13,9.06-21,8.94-23A33.07,33.07,0,0,0,433.21,729.58Zm-8.94,33.85c-5.1,6.41-12.81,7.16-14,7.26a23.14,23.14,0,0,1-12.77-6.05,20.91,20.91,0,0,1-6.39-13.3,18.31,18.31,0,0,1,5.11-12.09,17.86,17.86,0,0,1,26.82,0,18.4,18.4,0,0,1,5.11,12.09A17.94,17.94,0,0,1,424.27,763.43Z"/><path class="cls-1" d="M608.18,723.53a29.83,29.83,0,0,0-12.78-3.63,26,26,0,0,0-12.77,2.42,24.34,24.34,0,0,0-8.94,7.26,28.72,28.72,0,0,0-7.66-6.05,30.81,30.81,0,0,0-12.77-3.63A24,24,0,0,0,543,721.11a22.73,22.73,0,0,0-10.22,7.26v-6h-14v58H534.1V744.09a19.5,19.5,0,0,1,6.39-8.47,21,21,0,0,1,7.66-3.63,15,15,0,0,1,7.66,3.63,13.45,13.45,0,0,1,3.83,6v38.69h17.88v-39.9a14,14,0,0,1,5.11-6.05,15.35,15.35,0,0,1,8.94-2.42,14.2,14.2,0,0,1,6.39,2.42,13.19,13.19,0,0,1,5.11,7.26v38.69h15.32V733.2A27.94,27.94,0,0,0,608.18,723.53Z"/></svg>