<svg xmlns="http://www.w3.org/2000/svg" viewBox="0 0 800 800"><defs><style>.cls-1{fill:#fff;}</style></defs><title>logo-platzi</title><g id="Capa_2" data-name="Capa 2"><path class="cls-1" d="M228,653c-7.65-9.7-19.06-14-31-14H111V759h26V724c11.23-.38,21-.27,29,0,16.87.57,21.55,1.74,31,0,16.42-3,23.56-8.7,26-11a38.23,38.23,0,0,0,7-9,40.56,40.56,0,0,0,5-22C235.62,676.05,236.06,663.22,228,653Zm-18,45a30.11,30.11,0,0,1-17,11H137V655h57a24.58,24.58,0,0,1,17,9,24.07,24.07,0,0,1,5,15A30,30,0,0,1,210,698Z"/><path class="cls-1" d="M284,741V639H262V742a27.82,27.82,0,0,0,32,21c.61.13,8.53,1.62,14-4a14.81,14.81,0,0,0,4-9,53.53,53.53,0,0,1-28-9Z"/><path class="cls-1" d="M437,748c-6.49-7.25-4.8-17.21-4-34,.38-8,.66-19.64,0-34a109.62,109.62,0,0,0-53-9,107,107,0,0,0-30,7,47.42,47.42,0,0,0-27,43c.38,4.8,2.11,18.44,13,29,12.53,12.15,28.78,12,37,12,6.08,0,17.89-.1,28-7,1.88-1.28,4.48-3.33,12-9,3.3,10.44,12.37,16.86,21,16,7.46-.74,12-6.66,13-8A21.19,21.19,0,0,1,437,748Zm-38-9a32.6,32.6,0,0,1-54-22c.13-2,1.14-14.41,12-23,11.73-9.28,25.27-6.4,27-6a27.8,27.8,0,0,1,17,7,28.19,28.19,0,0,1,9,19C410.05,715.76,410.25,729.63,399,739Z"/><path class="cls-1" d="M516,747a31.31,31.31,0,0,1-12-10V688h38V675H503V655H481v20H457v12h24v40c-.41,3.48-1.05,13.07,5,21,4,5.26,9.48,7.85,14,10a52.69,52.69,0,0,0,12,4,75.4,75.4,0,0,0,14,0c8.65-.8,15-1.39,18-6,.76-1.19,2.35-4.28,1-10C543,747,529.61,753.34,516,747Z"/><polygon class="cls-1" points="565 688 565 692 622 692 565 753 565 762 661 761 661 745 603 745 661 680 661 675 565 675 565 688"/><rect class="cls-1" x="681" y="675" width="25" height="87"/><path class="cls-1" d="M694,659a14.42,14.42,0,0,0,11-4,11,11,0,0,0,0-17,14.74,14.74,0,0,0-11-4,12.14,12.14,0,0,0-10,21A14.1,14.1,0,0,0,694,659Z"/><path class="cls-1" d="M400.78,580.14a61.66,61.66,0,0,0,72.19,0l108.8-88.9-67-52.93-76.37,55L217.71,318.71,438.44,143,586,259.44,443.67,379l71.14,59.27L688.47,294.37a64.42,64.42,0,0,0,0-63.51L476.11,59.39a74.73,74.73,0,0,0-83.7,0L115.18,282.72c-2.07,2.28-14.59,16.5-12.55,37a47.93,47.93,0,0,0,12.55,27.52Z"/></g></svg>