<svg id="Capa_1" data-name="Capa 1" xmlns="http://www.w3.org/2000/svg" viewBox="0 0 800 800"><defs><style>.cls-1{fill:#fff;}</style></defs><title>logo-wordpress</title><path class="cls-1" d="M696,164C587.09,28.78,424.05,23.82,400.5,23.5,375.56,23.62,237.59,26.71,129,139,26.51,245,22.69,373.25,22.5,400.5c.2,35.82,5.56,137.57,78.5,231.5C209.33,771.49,376.84,778,400.5,778.5,425,778.18,574.87,773.76,684,650c89.06-101,94.14-217,94.5-248.5C778.44,367.26,773.85,260.66,696,164ZM665,643C561,755.85,423.59,759.73,400,760c-24.26-.38-158.44-4.86-262-115C45.14,546.24,39.57,429.2,39,401c-.2-22.27.9-163.34,116-268C255.62,41.51,374.37,40.56,401,41c24-.4,149.33,0,252,99C760.88,244.08,761.3,377.57,761,400,760.64,428.42,755.92,544.38,665,643Z"/><path class="cls-1" d="M75,399a310.41,310.41,0,0,0,26,125A318.29,318.29,0,0,0,257,690L104,269A310.44,310.44,0,0,0,75,399Z"/><path class="cls-1" d="M615,348a160.94,160.94,0,0,0-18-45c-6.5-9.27-11.51-17.22-15-23-8.58-14.2-13.41-22.3-17-34a102.22,102.22,0,0,1-4-20c-.49-2.63-4.76-28.17,14-48,17-18,39.74-17.18,43-17A288.64,288.64,0,0,0,517,98,340,340,0,0,0,339,82,319.3,319.3,0,0,0,130,222q23.49-.18,48-1,30.81-1,60-3a14.28,14.28,0,0,1,13,10c1.88,6.64-1.87,14.2-9,17l-41,4L320,598l70-213L340,249s-6.88-.52-14-1c-6.38-.43-8.33-.52-12-1a51.25,51.25,0,0,1-6-1c-5-1.21-8.44-2.05-11-5a13.59,13.59,0,0,1-3-9c0-1.51,0-6.47,4-10a12.67,12.67,0,0,1,9-3c28.12,2.09,58.54,3.27,91,3,30.21-.25,58.62-1.73,85-4a14.49,14.49,0,0,1,12,13c.46,7.22-5.15,14-13,15l-37,3L562,595l56-191A161.24,161.24,0,0,0,615,348Z"/><path class="cls-1" d="M309,710a338,338,0,0,0,198-5L406,430Z"/><path class="cls-1" d="M685,246a235.1,235.1,0,0,1,0,67c-2.35,16-6,28.89-10,43a510.4,510.4,0,0,1-17,50L564,679A324.29,324.29,0,0,0,714,483c7.79-32.08,16.5-87.51,2-153A332.44,332.44,0,0,0,685,246Z"/></svg>