<svg id="Capa_2" data-name="Capa 2" xmlns="http://www.w3.org/2000/svg" viewBox="0 0 800 800"><defs><style>.cls-1{fill:#fff;}</style></defs><title>logo-git</title><path class="cls-1" d="M638.37,310.64a44.61,44.61,0,0,0-12-26.2L428.12,40.13c-.59-1.05-7.5-12.86-21.3-14a27.47,27.47,0,0,0-25.93,14L341.06,88.81l53.72,65.52c3.41-.92,17.87-4.4,30.56,3.74,14.91,9.57,21.43,31.33,13.9,52.42q26.38,32.3,52.79,64.58a26,26,0,0,1,14.82-3.74,26.31,26.31,0,0,1,16.67,7.49,54.77,54.77,0,0,1,13,20.59,55.47,55.47,0,0,1,2.78,24.34c-.12,2.43-1.21,18.64-14.82,29a31.63,31.63,0,0,1-39.83.94c-14.69-10.47-20.65-32.21-15.74-55.22l-47.24-58,.93,155.38a50.61,50.61,0,0,1,14.81,18.72,51.15,51.15,0,0,1,4.64,23.4c.25,2.14,1.9,18.36-10.19,30.89a32.85,32.85,0,0,1-44.46,4.68c-17.71-12.47-16.78-36.38-16.67-38.38a41.25,41.25,0,0,1,2.78-19.65A41.75,41.75,0,0,1,392,394.89V235.76a50.26,50.26,0,0,1-17.6-20.59c-7.94-17.32-3.13-33.52-1.85-37.44l-51.87-64.59L189.16,275.07c-2.19,1.81-17.18,14.67-17.6,36.51-.44,22.95,15.59,36.71,17.6,38.38Q282.7,465.09,376.25,580.22c11.22,15.12,28.84,21.25,42.61,15.91,9.83-3.81,14.86-12.37,16.67-15.91l190.8-234.94C628.26,343.21,640.2,330,638.37,310.64Z"/><path class="cls-1" d="M333,651c-8.69,0-26.88.13-38,13a35.57,35.57,0,0,0-8,18,27.41,27.41,0,0,0,6,17,26.87,26.87,0,0,0,11,8c-3.36,2.31-6.05,4.41-8,6-6.78,5.54-8.22,8-9,10a15.56,15.56,0,0,0-1,5,10.79,10.79,0,0,0,4,7,10.3,10.3,0,0,0,5,2,19,19,0,0,0-11,17,18.42,18.42,0,0,0,3,9c4.73,7,13.64,8.37,25,10a118.08,118.08,0,0,0,21,1c9.11-.2,17-.37,27-3,9.32-2.46,16.53-4.37,22-11a28.58,28.58,0,0,0,6-14,21.58,21.58,0,0,0-4-13c-4.12-5.49-10.19-7.14-17-9a56.81,56.81,0,0,0-15-2l-38-2,7-9a64.06,64.06,0,0,0,17,2,53.11,53.11,0,0,0,18-3,50.28,50.28,0,0,0,13-7,22.69,22.69,0,0,0,9-13,21.78,21.78,0,0,0,0-10,19.06,19.06,0,0,0-7-12l18-1V653H350A70.65,70.65,0,0,0,333,651Zm6,91c10,.52,17.56,1.06,19,5a4.85,4.85,0,0,1,0,3,9.73,9.73,0,0,1-2,4c-1.5,1.76-3.71,2.93-11,4a97.34,97.34,0,0,1-12,1c-4.75-.2-8.81-.6-12-1-7.68-1-10.22-1.92-12-4a9.57,9.57,0,0,1-2-4,13.73,13.73,0,0,1,6-9C322.85,741.25,331.59,741.62,339,742Zm11-53c-4.51,7.33-14.46,7-15,7a35.46,35.46,0,0,1-8-1c-3.94-1-6.78-1.65-9-4-3.27-3.45-3.13-8.31-3-10a16.36,16.36,0,0,1,4-9c6-6.61,15.27-5.13,16-5,.74,0,9.1-.47,14,6a15.3,15.3,0,0,1,3,9A13.91,13.91,0,0,1,350,689Z"/><path class="cls-1" d="M443,721a6.27,6.27,0,0,1-2-5V651l-41,1-1,12c2.34.75,4.36,1.43,6,2,4.2,1.46,5.21,1.94,6,3a6.91,6.91,0,0,1,1,5v38c.05,1,0,2,0,4-.06,3.29-.21,4.36-1,5a14.85,14.85,0,0,1-2,1l-10,1v13h56V723l-10-1A5.18,5.18,0,0,1,443,721Z"/><path class="cls-1" d="M425,638a14.76,14.76,0,0,0,12-3,14.55,14.55,0,0,0,5-10,15.46,15.46,0,0,0-3-9c-5.2-6.88-14.4-6.06-15-6-6.76-.52-13,2.08-16,7a14,14,0,0,0-2,7,15.12,15.12,0,0,0,4,10C415.78,640.05,424.57,638.1,425,638Z"/><path class="cls-1" d="M520,717a50.78,50.78,0,0,1-13,1,10.57,10.57,0,0,1-6-3,10.71,10.71,0,0,1-3-7V666h30V650H498V625H479c.07,1.57.37,12.09-8,20a26.33,26.33,0,0,1-18,7v14h13a1.62,1.62,0,0,1,1,0,1.69,1.69,0,0,1,1,1c.15.46,0,31.67,0,47,.17,1.48,1.57,12.4,11,18a22.13,22.13,0,0,0,11,3,76.93,76.93,0,0,0,43-6l-6-14A50.17,50.17,0,0,1,520,717Z"/></svg>