<svg id="Capa_1" data-name="Capa 1" xmlns="http://www.w3.org/2000/svg" viewBox="0 0 800 800"><defs><style>.cls-1{fill:#fff;}</style></defs><title>logo-nodejs</title><path class="cls-1" d="M371,47a59.25,59.25,0,0,1,56,0L684,197a50.86,50.86,0,0,1,34,51V548a60.44,60.44,0,0,1-35,58L436,749c-5.32,3.35-20.66,12-41,10a63.39,63.39,0,0,1-25-8l-96-59,50-20,76,43L671,555V243L399,87,128,242V559l74,42c16.94,11.45,37.91,11,51,0,11.7-9.87,12.83-24.64,13-28q.5-147,1-294a11.15,11.15,0,0,1,2-9,11,11,0,0,1,7-4h34a10.16,10.16,0,0,1,3,2c4.36,4.23,3.18,11.06,3,12V577c.18,5.71.81,43.43-27,65a64.54,64.54,0,0,1-22,11,131.24,131.24,0,0,1-98-17l-67-39a51.22,51.22,0,0,1-22-41V240a54.07,54.07,0,0,1,26-40Z"/><path class="cls-1" d="M602,345c-.75-10-3.94-32.6-21-52-16.62-18.9-38.19-25.43-50-29a173.5,173.5,0,0,0-23-5,229.6,229.6,0,0,0-38-3,156.83,156.83,0,0,0-39,4c-19,4.41-46.87,10.88-65,35-4.8,6.38-15.07,22.18-16,48a73.69,73.69,0,0,0,4,22,75.18,75.18,0,0,0,23,33c12.55,10.24,25,13.12,46,18a221.44,221.44,0,0,0,32,5c12.25.63,25.65,1.86,40,4,14.57,2.18,28,5,40,8,2.28.44,13.17,2.77,20,13a30.38,30.38,0,0,1,5,16,36.32,36.32,0,0,1-5,19c-7.78,13.06-21.34,16.4-24,17a112.51,112.51,0,0,1-14,4,115.26,115.26,0,0,1-36,2c-12.29,1.84-34,3.14-57-7a95.28,95.28,0,0,1-16-9,54.64,54.64,0,0,1-16-30c.1-.74.94-8-4-12a10.55,10.55,0,0,0-4-2H349a8.76,8.76,0,0,0-7,9c-1.15,15.31,1.74,26.89,5,35,15.73,39.17,66.24,63.09,127,62,64.42,2.71,117.86-20.49,134-60,3.22-7.88,5.91-18.75,5-33,.3-7.85-.21-25.65-12-41-6.73-8.76-14.92-13.85-20-17a91.87,91.87,0,0,0-26-11c-8.27-2.18-21.08-5.3-37-8-20.14-3.42-30-3.6-53-7-9.27-1.37-22.71-3.56-39-7a30.08,30.08,0,0,1-24-28,35.38,35.38,0,0,1,5-15c7.13-11.59,18.87-15.16,22-16a191.44,191.44,0,0,1,54-4,78.63,78.63,0,0,1,18,1,102.14,102.14,0,0,1,12,3c10,2.86,14.92,4.29,19,7a35.19,35.19,0,0,1,11,12,33.48,33.48,0,0,1,10,23,7.58,7.58,0,0,0,2,6,7.17,7.17,0,0,0,4,2h38a8.58,8.58,0,0,0,3-2C603.55,351.29,602.15,345.58,602,345Z"/></svg>