<svg id="Capa_2" data-name="Capa 2" xmlns="http://www.w3.org/2000/svg" viewBox="0 0 800 800"><defs><style>.cls-1{font-size:124px;}.cls-1,.cls-2,.cls-5,.cls-6{fill:#fff;}.cls-1,.cls-2,.cls-6{font-family:FranklinGothic-Medium, Franklin Gothic Medium;font-weight:500;}.cls-2{font-size:48px;letter-spacing:0.03em;}.cls-3{letter-spacing:0.01em;}.cls-4{letter-spacing:0.05em;}.cls-6{font-size:30px;letter-spacing:0.03em;}</style></defs><title>AIEX OCP</title><text class="cls-1" transform="translate(288.88 87.83)">OCP</text><text class="cls-2" transform="translate(3.39 786.5)">Aliados para su imagen y <tspan class="cls-3" x="559.45" y="0">e</tspan><tspan x="585.24" y="0">xpe</tspan><tspan class="cls-4" x="661.05" y="0">r</tspan><tspan x="679.13" y="0">ticias</tspan></text><path class="cls-5" d="M661,273H645V194H631v-9.15a17.65,17.65,0,0,0,8-3.85c9-7.14,8.14-20.38,8-22a161.27,161.27,0,0,0-22-48c.9,14.07-2.49,22.65-6,28-2.34,3.56-6.07,7.72-8,15a35.29,35.29,0,0,0-1,12c.67,3,2.68,10,9,15a18.85,18.85,0,0,0,6,3.44V194H612v79H598v28l19,23c.11,15.14-.81,112.37-79,180-50.08,43.32-105.67,51.83-128,54V512c16.12-1.91,65.29-9.84,107-51,53.54-52.85,54.13-120.35,54-133l20-27V273H575V194H561v-9.79a20,20,0,0,0,6-3.21c10.53-8.25,8.16-24,8-25a142,142,0,0,0-19-45,47.41,47.41,0,0,1-3,19c-3.18,8.22-7.24,11.25-10,20a44.61,44.61,0,0,0-2,15c0,.51-1,11.3,7,17a16.35,16.35,0,0,0,7,2.79V194H542v79H528v28l18,21c.5,11.25,1.79,66.32-40,113-36.77,41.08-83.19,49.19-96,51V434c7.76-1.28,43.3-8,68-41,20.67-27.59,21.2-56.8,21-66l19-27V273H503V194H489v-9.18a18.48,18.48,0,0,0,9-4.82c5.84-5.64,5.93-13.58,6-19,.13-10.72-3.57-18.75-7-26-2-4.29-3.6-6.72-14-23,1.25,10.35-.78,17.38-3,22-3.23,6.72-7.79,10.25-10,19a35.91,35.91,0,0,0-1,11c1.19,10.5,7.18,18.29,14,20.43V194H470v79H456v30l17,20a82.17,82.17,0,0,1-12,50c-17.25,27.5-45.21,34.65-51,36V327l19-25V273H416V194H402v-9.43a20,20,0,0,0,8-3.57c6.52-4.93,9.49-13.81,8-23a93.1,93.1,0,0,0-4-16,95.07,95.07,0,0,0-18-31c.71,10.77-1.63,18.16-4,23-4.19,8.57-11.09,14.49-12,26a31.42,31.42,0,0,0,0,5c.48,2.37,2.44,10.56,10,16a24.34,24.34,0,0,0,6,3.14V194H383v79H367v27l19,27v82a84.47,84.47,0,0,1-45-29c-18.33-23.09-18.24-48.29-18-55l19-25V273H327V194H314v-8.76a12.73,12.73,0,0,0,5-1.24c7.52-3.7,11.29-15.5,8-29q-1.83-5.4-4-11a272.09,272.09,0,0,0-16-34,111.9,111.9,0,0,1-3,23h0c-2.21,11-7.06,14.76-10,23a36,36,0,0,0-2,10c0,1,.18,10.71,8,16a17.58,17.58,0,0,0,8,2.88V194H294v79H279v29l18,24c.2,9.31,2,43.95,29,74a114.92,114.92,0,0,0,60,35v51c-13.79-2.11-56.69-10.5-92-48-43.53-46.24-43.29-102.52-43-114l17-22V273H250V194H237v-9.18a18.14,18.14,0,0,0,8-3.82c6.19-5,8.41-14.45,6-24a139.23,139.23,0,0,0-21-47c1.82,12-.46,19.92-3,25-3.19,6.38-7.76,10.16-10,19a37.56,37.56,0,0,0-1,12,23.19,23.19,0,0,0,7,14,17.91,17.91,0,0,0,8,4.66V194H217v79H207v29l17,25c-.05,14.47,1.44,71.43,45,122,44.81,52,103.05,61.19,117,63v46c-18.44-1.3-85.33-8.23-141-63-68.13-67-66.51-153.6-66-168l18-25V273H180V194H167v-9.51a18.22,18.22,0,0,0,6-2.49c7-4.57,10.45-14,9-24a219.19,219.19,0,0,0-8-21,219.7,219.7,0,0,0-13-25c1,11.46-1.49,19.1-4,24-3.34,6.52-7.8,10.3-10,19a37.55,37.55,0,0,0-1,12c.23,1.63,1.58,10.1,9,15a19,19,0,0,0,6,2.6V194H147v79H137v28l17,26c-.71,16.89-2.59,103.5,64,177,65.8,72.63,150.82,79.89,168,81v79H369v19H358L230,720H568L439,683H429V664H410V585c23.26-2.11,90.35-11.28,149-65,81.09-74.28,82.11-175.17,82-192l20-27Z"/><path class="cls-5" d="M609,690a16.51,16.51,0,0,0-27,0,18.94,18.94,0,0,0-4,12,18.75,18.75,0,0,0,19,19,16.38,16.38,0,0,0,11-4c6.39-5.74,5.1-14.38,5-15A19,19,0,0,0,609,690Zm-3,24a13.09,13.09,0,0,1-10,3,15.24,15.24,0,0,1-9-3c-5.66-4.28-6-11-6-12a15.66,15.66,0,0,1,4-10,13.78,13.78,0,0,1,22,1,15.3,15.3,0,0,1,3,9C610.07,702.37,611.24,709.38,606,714Z"/><text class="cls-6" transform="translate(587.03 712.2)">R</text></svg>