<?xml version="1.0" encoding="UTF-8"?>
<svg id="Layer_1" xmlns="http://www.w3.org/2000/svg" version="1.1" viewBox="0 0 791 907">
  <!-- Generator: Adobe Illustrator 29.1.0, SVG Export Plug-In . SVG Version: 2.1.0 Build 142)  -->
  <defs>
    <style>
      .st0 {
        fill: #fff;
      }

      .st1 {
        fill: #e6e6e6;
      }
    </style>
  </defs>
  <g>
    <path class="st0" d="M-1021,116.68c.43,5.24,15.66,31.72,17.47,31.73,7.63.06,19.37-23.98,20.57-31.73h34.87l.02,95.12-31.72-.02v-44.38c-7.19,2.91-15.85,30.49-23.74,28.53-4.8-1.19-14.02-25.74-20.64-28.53v44.38l-31.72.02.02-95.12h34.87Z"/>
    <polygon class="st0" points="-1233.39 116.68 -1231.57 148.43 -1204.85 148.39 -1204.86 116.68 -1173.16 116.68 -1173.15 211.79 -1204.88 211.79 -1204.85 180.06 -1231.57 180.02 -1235.22 211.83 -1265.11 211.79 -1265.09 116.68 -1233.39 116.68"/>
    <path class="st0" d="M-1068.55,116.68c-.86,5.44,1.22,30.51.02,31.72s-23.51-.86-28.55-.02v63.4h-34.87v-63.4c-4.69-.8-24.26,1.14-25.38.02-1.2-1.2.87-26.28.02-31.72h88.76Z"/>
    <polygon class="st0" points="-897.37 116.68 -897.37 180.08 -852.99 180.08 -852.99 211.78 -932.24 211.78 -932.24 116.68 -897.37 116.68"/>
    <path class="st0" d="M-808.61,256.16l-44.79,516.29-207.22,56.91-207.23-56.9-44.78-516.3h504.03ZM-1059.04,360.77c-1.06,0-2.11,0-3.17,0-44.88.07-104.81-4.82-147.56-.15-4.38.48-8.59.07-10.58,5.16l19.11,187.93c46.28.84,92.74.41,139.03.44,25.68.02,54.61-2.67,79.25,3.17l-76.1-.02.02,95.12c-22.16,1.6-49.33-14.1-72.61-16.14l-3.47-50.43h-63.4l7.74,98.46c2.31,3.29,39.26,10.55,46.93,12.76,4.58,1.32,8.62,2.31,15.06,4.13,10.11,2.85,65.78,21.49,69.74,20.97l.03,63.4,164.56-44.62,38.29-440.39h-202.88v60.23Z"/>
    <path class="st1" d="M-1059.04,360.77v-60.23h202.88l-38.29,440.39-164.56,44.62-.03-63.4c24.92-3.25,73.04-23.1,101.28-30.27,8.8-2.23,22.83,1.02,27.11-7.76l17.54-188.6-4.78-4.81c-47.05-.06-94.15.16-141.16.02v-63.4c50.71-.14,101.81,1.99,152.18-3.16-3.36-11.01,8.68-55.42,1.31-60.6-8.07-5.66-132.13-2.76-153.49-2.81Z"/>
    <path class="st1" d="M-982.96,557.31l-7.79,76.21c-3.14,4.7-58.91,18.21-68.29,18.89l-.02-95.12,76.1.02Z"/>
    <path class="st0" d="M-1062.21,427.34c1.06,0,2.11,0,3.17,0v63.4c-1.06,0-2.11,0-3.17,0-27.44-.09-55,.06-82.44.02l-3.17-63.43c28.49-.04,57.11.11,85.61.02Z"/>
  </g>
  <g>
    <path class="st0" d="M389.66,837l-221.32-63.7L121.04,223.44h541.82l-47.51,550.78-221.11,62.78h-4.58ZM391.19,336.39c-56.45,0-112.97,0-169.42,0l6.11,68.69h135.84l-129.48,64.35,4.54,70.51,1.22,1.84c50.23,1.29,100.84.57,151.2.67v106.84l-74.09-21.3-3.75-53.49h-70.21l8.33,103.85,139.71,39.62v71.73s175.56-48.38,175.56-48.38l42.69-470.55h-218.25v65.63Z"/>
    <polygon class="st0" points="546.87 73.87 546.87 101.34 478.18 101.34 478.18 112.03 546.87 112.03 546.87 176.13 450.71 176.13 450.71 148.66 519.39 148.66 519.39 136.45 450.71 136.45 450.71 73.87 546.87 73.87"/>
    <path class="st0" d="M436.98,73.87v27.47h-68.68v10.68h66.39c.16,0,2.29,2.13,2.29,2.29v59.52c0,.16-2.13,2.29-2.29,2.29h-93.86v-27.47h68.68v-12.21h-68.68v-62.58h96.15Z"/>
    <path class="st0" d="M325.56,73.87v27.47h-68.68v45.02c0,.16,2.13,2.29,2.29,2.29h66.39v27.47h-94.63v-102.26h94.63Z"/>
    <path class="st1" d="M391.19,336.39v-65.63h218.25l-42.69,470.55-175.55,48.38v-71.73s139.7-39.63,139.7-39.63l17.49-204.58h-128.21l4.55-3.85,128.95-64.88,2.25-5.38,4.68-63.26c-56.45.01-112.97,0-169.42,0Z"/>
    <path class="st0" d="M391.19,542.43c26.94.05,53.96-.03,80.9,0l-5.29,85.54-75.61,21.31v-106.84Z"/>
  </g>
</svg>