<?xml version="1.0" encoding="UTF-8"?>
<svg id="Layer_1" xmlns="http://www.w3.org/2000/svg" version="1.1" viewBox="0 0 717 806">
  <!-- Generator: Adobe Illustrator 29.1.0, SVG Export Plug-In . SVG Version: 2.1.0 Build 142)  -->
  <defs>
    <style>
      .st0 {
        fill: #fff;
      }

      .st1 {
        fill: #e6e6e6;
      }
    </style>
  </defs>
  <path class="st0" d="M422,64.68c.43,5.24,15.66,31.72,17.47,31.73,7.63.06,19.37-23.98,20.57-31.73h34.87l.02,95.12-31.72-.02v-44.38c-7.19,2.91-15.85,30.49-23.74,28.53-4.8-1.19-14.02-25.74-20.64-28.53v44.38l-31.72.02.02-95.12h34.87Z"/>
  <polygon class="st0" points="209.61 64.68 211.43 96.43 238.15 96.39 238.14 64.68 269.84 64.68 269.85 159.79 238.12 159.79 238.15 128.06 211.43 128.02 207.78 159.83 177.89 159.79 177.91 64.68 209.61 64.68"/>
  <path class="st0" d="M374.45,64.68c-.86,5.44,1.22,30.51.02,31.72s-23.51-.86-28.55-.02v63.4h-34.87v-63.4c-4.69-.8-24.26,1.14-25.38.02-1.2-1.2.87-26.28.02-31.72h88.76Z"/>
  <polygon class="st0" points="545.63 64.68 545.63 128.08 590.01 128.08 590.01 159.78 510.76 159.78 510.76 64.68 545.63 64.68"/>
  <path class="st0" d="M634.39,204.16l-44.79,516.29-207.22,56.91-207.23-56.9-44.78-516.3h504.03ZM383.96,308.77c-1.06,0-2.11,0-3.17,0-44.88.07-104.81-4.82-147.56-.15-4.38.48-8.59.07-10.58,5.16l19.11,187.93c46.28.84,92.74.41,139.03.44,25.68.02,54.61-2.67,79.25,3.17l-76.1-.02.02,95.12c-22.16,1.6-49.33-14.1-72.61-16.14l-3.47-50.43h-63.4l7.74,98.46c2.31,3.29,39.26,10.55,46.93,12.76,4.58,1.32,8.62,2.31,15.06,4.13,10.11,2.85,65.78,21.49,69.74,20.97l.03,63.4,164.56-44.62,38.29-440.39h-202.88v60.23Z"/>
  <path class="st1" d="M383.96,308.77v-60.23h202.88l-38.29,440.39-164.56,44.62-.03-63.4c24.92-3.25,73.04-23.1,101.28-30.27,8.8-2.23,22.83,1.02,27.11-7.76l17.54-188.6-4.78-4.81c-47.05-.06-94.15.16-141.16.02v-63.4c50.71-.14,101.81,1.99,152.18-3.16-3.36-11.01,8.68-55.42,1.31-60.6-8.07-5.66-132.13-2.76-153.49-2.81Z"/>
  <path class="st1" d="M460.04,505.31l-7.79,76.21c-3.14,4.7-58.91,18.21-68.29,18.89l-.02-95.12,76.1.02Z"/>
  <path class="st0" d="M380.79,375.34c1.06,0,2.11,0,3.17,0v63.4c-1.06,0-2.11,0-3.17,0-27.44-.09-55,.06-82.44.02l-3.17-63.43c28.49-.04,57.11.11,85.61.02Z"/>
</svg>