<svg id="Capa_2" data-name="Capa 2" xmlns="http://www.w3.org/2000/svg" viewBox="0 0 800 800"><defs><style>.cls-1{fill:none;}.cls-2{fill:#9f9f9f;}.cls-3{fill:#bfbfbf;}.cls-4{fill:#fff;}</style></defs><title>logo-bootstrap</title><path class="cls-1" d="M438,416l96-71a59.71,59.71,0,0,0,4.8-4A58.23,58.23,0,0,0,557,306a54.72,54.72,0,0,0-4-20c-7.24-17.77-21.9-26.33-27-29a80,80,0,0,0-47-12,93,93,0,0,0-46,14,39.65,39.65,0,0,0,9-36,59.59,59.59,0,0,0-29-32,96.83,96.83,0,0,0-40-9,99.27,99.27,0,0,0-34,6,104.24,104.24,0,0,0-26,14c-20.43,14.6-49.24,35.3-84,61l106.55,78Zm-5-136c4.29-2.88,22.59-14.42,46-10a59.9,59.9,0,0,1,26,12c1.56.84,11.31,6.29,14,18a28,28,0,0,1-9,27l-18,14-50,39-54.45-39L368,327Zm-96-61a54.36,54.36,0,0,1,63,0c2.6,1.78,11.19,8.16,13,19,1.89,11.3-4.79,20.31-9,26-4.48,6.05-7.61,7.8-23,19-12.13,8.83-23.94,18.09-36,27l-66-49Z"/><path class="cls-2" d="M462,645a123.56,123.56,0,0,1-129,0L63,447a50.75,50.75,0,0,1-4.41-2.56A60.36,60.36,0,0,0,61,545L340,749a115.75,115.75,0,0,0,121-4L729,550a62.74,62.74,0,0,0,10.52-106,57.83,57.83,0,0,1-7.52,5Z"/><path class="cls-3" d="M765,398a61.21,61.21,0,0,0-26.66-53.16c-1.08.75-2.2,1.48-3.34,2.16L608.73,439,466,543a124.63,124.63,0,0,1-129,4L189,439,63,347a49.34,49.34,0,0,1-4.63-3.3C38.17,356.59,27,379.43,30,402c3.12,23.43,20.24,37.08,28.59,42.44A50.75,50.75,0,0,0,63,447L333,645a123.56,123.56,0,0,0,129,0L732,449a57.83,57.83,0,0,0,7.52-5C748.92,436.77,763.84,421.66,765,398Z"/><path class="cls-4" d="M189,439,337,547a124.63,124.63,0,0,0,129-4L608.73,439,735,347c1.14-.68,2.26-1.41,3.34-2.16A59.07,59.07,0,0,0,764,293c-1.79-30.23-26.87-45.73-29-47L457,44s-33.28-15.73-64-14c-31.5,1.77-60.48,21-62,21C328,51,56,251,56,251c-2,1.68-23.83,20.75-21,51,2.06,22,15.85,35.75,23.37,41.7A49.34,49.34,0,0,0,63,347ZM313,202a104.24,104.24,0,0,1,26-14,99.27,99.27,0,0,1,34-6,96.83,96.83,0,0,1,40,9,59.59,59.59,0,0,1,29,32,39.65,39.65,0,0,1-9,36,93,93,0,0,1,46-14,80,80,0,0,1,47,12c5.1,2.67,19.76,11.23,27,29a54.72,54.72,0,0,1,4,20,58.23,58.23,0,0,1-18.2,35,59.71,59.71,0,0,1-4.8,4l-96,71L335.55,341,229,263C263.76,237.3,292.57,216.6,313,202Z"/><path class="cls-4" d="M381,283c15.39-11.2,18.52-12.95,23-19,4.21-5.69,10.89-14.7,9-26-1.81-10.84-10.4-17.22-13-19a54.36,54.36,0,0,0-63,0l-58,42,66,49C357.06,301.09,368.87,291.83,381,283Z"/><path class="cls-4" d="M387.55,341,442,380l50-39,18-14a28,28,0,0,0,9-27c-2.69-11.71-12.44-17.16-14-18a59.9,59.9,0,0,0-26-12c-23.41-4.42-41.71,7.12-46,10l-65,47Z"/></svg>